<svg width="50" height="50" viewBox="0 0 50 50" fill="none" xmlns="http://www.w3.org/2000/svg"><g clip-path="url(#a)"><path d="M50 25a25 25 0 1 1-50 0 25 25 0 0 1 50 0Zm-24.103-6.544c-2.431 1.013-7.294 3.107-14.581 6.282-1.182.468-1.803.93-1.86 1.38-.093.76.86 1.06 2.157 1.47l.546.171c1.275.416 2.994.9 3.885.92.812.018 1.715-.313 2.712-1 6.81-4.598 10.325-6.92 10.544-6.97.156-.037.375-.08.519.05.147.128.131.375.116.441-.094.403-3.835 3.878-5.77 5.678-.602.563-1.03.96-1.118 1.05-.193.197-.389.39-.588.581-1.187 1.144-2.075 2 .047 3.4 1.022.675 1.841 1.229 2.657 1.785.887.606 1.775 1.21 2.925 1.965.29.188.572.391.843.585 1.035.737 1.97 1.4 3.116 1.294.669-.063 1.36-.688 1.71-2.563.828-4.428 2.456-14.019 2.83-17.972a4.46 4.46 0 0 0-.04-.984 1.053 1.053 0 0 0-.356-.678 1.644 1.644 0 0 0-.969-.291c-.938.016-2.384.519-9.325 3.406Z" fill="#fff"/></g><defs><clipPath id="a"><path fill="#fff" d="M0 0h50v50H0z"/></clipPath></defs></svg>